<?xml version="1.0" encoding="UTF-8" standalone="no"?>
<svg
   xmlns:dc="http://purl.org/dc/elements/1.1/"
   xmlns:cc="http://creativecommons.org/ns#"
   xmlns:rdf="http://www.w3.org/1999/02/22-rdf-syntax-ns#"
   xmlns:svg="http://www.w3.org/2000/svg"
   xmlns="http://www.w3.org/2000/svg"
   xmlns:sodipodi="http://sodipodi.sourceforge.net/DTD/sodipodi-0.dtd"
   xmlns:inkscape="http://www.inkscape.org/namespaces/inkscape"
   version="1.1"
   id="Layer_1"
   x="0px"
   y="0px"
   viewBox="0 0 735 852"
   style="enable-background:new 0 0 735 852;"
   xml:space="preserve"
   sodipodi:docname="logo-raw.svg"
   inkscape:version="1.0.1 (3bc2e813f5, 2020-09-07)"><metadata
   id="metadata58"><rdf:RDF><cc:Work
       rdf:about=""><dc:format>image/svg+xml</dc:format><dc:type
         rdf:resource="http://purl.org/dc/dcmitype/StillImage" /><dc:title>shiny</dc:title></cc:Work></rdf:RDF></metadata><defs
   id="defs56"><marker
     style="overflow:visible;"
     id="marker2487"
     refX="0.0"
     refY="0.0"
     orient="auto"
     inkscape:stockid="Arrow1Send"
     inkscape:isstock="true"><path
       transform="scale(0.2) rotate(180) translate(6,0)"
       style="fill-rule:evenodd;stroke:#79740e;stroke-width:1pt;stroke-opacity:1;fill:#79740e;fill-opacity:1"
       d="M 0.0,0.0 L 5.0,-5.0 L -12.5,0.0 L 5.0,5.0 L 0.0,0.0 z "
       id="path2485" /></marker><marker
     style="overflow:visible;"
     id="marker2477"
     refX="0.0"
     refY="0.0"
     orient="auto"
     inkscape:stockid="Arrow1Send"
     inkscape:isstock="true"><path
       transform="scale(0.2) rotate(180) translate(6,0)"
       style="fill-rule:evenodd;stroke:#79740e;stroke-width:1pt;stroke-opacity:1;fill:#79740e;fill-opacity:1"
       d="M 0.0,0.0 L 5.0,-5.0 L -12.5,0.0 L 5.0,5.0 L 0.0,0.0 z "
       id="path2475" /></marker><marker
     style="overflow:visible;"
     id="marker2467"
     refX="0.0"
     refY="0.0"
     orient="auto"
     inkscape:stockid="Arrow1Send"
     inkscape:isstock="true"><path
       transform="scale(0.2) rotate(180) translate(6,0)"
       style="fill-rule:evenodd;stroke:#79740e;stroke-width:1pt;stroke-opacity:1;fill:#79740e;fill-opacity:1"
       d="M 0.0,0.0 L 5.0,-5.0 L -12.5,0.0 L 5.0,5.0 L 0.0,0.0 z "
       id="path2465" /></marker><marker
     style="overflow:visible;"
     id="marker2457"
     refX="0.0"
     refY="0.0"
     orient="auto"
     inkscape:stockid="Arrow1Send"
     inkscape:isstock="true"><path
       transform="scale(0.2) rotate(180) translate(6,0)"
       style="fill-rule:evenodd;stroke:#79740e;stroke-width:1pt;stroke-opacity:1;fill:#79740e;fill-opacity:1"
       d="M 0.0,0.0 L 5.0,-5.0 L -12.5,0.0 L 5.0,5.0 L 0.0,0.0 z "
       id="path2455" /></marker><marker
     style="overflow:visible;"
     id="marker2447"
     refX="0.0"
     refY="0.0"
     orient="auto"
     inkscape:stockid="Arrow1Send"
     inkscape:isstock="true"><path
       transform="scale(0.2) rotate(180) translate(6,0)"
       style="fill-rule:evenodd;stroke:#79740e;stroke-width:1pt;stroke-opacity:1;fill:#79740e;fill-opacity:1"
       d="M 0.0,0.0 L 5.0,-5.0 L -12.5,0.0 L 5.0,5.0 L 0.0,0.0 z "
       id="path2445" /></marker><marker
     style="overflow:visible"
     id="marker2249"
     refX="0.0"
     refY="0.0"
     orient="auto"
     inkscape:stockid="TriangleOutS"
     inkscape:isstock="true"><path
       transform="scale(0.2)"
       style="fill-rule:evenodd;stroke:#79740e;stroke-width:1pt;stroke-opacity:1;fill:#79740e;fill-opacity:1"
       d="M 5.77,0.0 L -2.88,5.0 L -2.88,-5.0 L 5.77,0.0 z "
       id="path2247" /></marker><marker
     style="overflow:visible"
     id="marker2239"
     refX="0.0"
     refY="0.0"
     orient="auto"
     inkscape:stockid="TriangleOutS"
     inkscape:isstock="true"><path
       transform="scale(0.2)"
       style="fill-rule:evenodd;stroke:#79740e;stroke-width:1pt;stroke-opacity:1;fill:#79740e;fill-opacity:1"
       d="M 5.77,0.0 L -2.88,5.0 L -2.88,-5.0 L 5.77,0.0 z "
       id="path2237" /></marker><marker
     style="overflow:visible"
     id="marker2229"
     refX="0.0"
     refY="0.0"
     orient="auto"
     inkscape:stockid="TriangleOutS"
     inkscape:isstock="true"><path
       transform="scale(0.2)"
       style="fill-rule:evenodd;stroke:#79740e;stroke-width:1pt;stroke-opacity:1;fill:#79740e;fill-opacity:1"
       d="M 5.77,0.0 L -2.88,5.0 L -2.88,-5.0 L 5.77,0.0 z "
       id="path2227" /></marker><marker
     style="overflow:visible"
     id="marker2219"
     refX="0.0"
     refY="0.0"
     orient="auto"
     inkscape:stockid="TriangleOutS"
     inkscape:isstock="true"><path
       transform="scale(0.2)"
       style="fill-rule:evenodd;stroke:#79740e;stroke-width:1pt;stroke-opacity:1;fill:#79740e;fill-opacity:1"
       d="M 5.77,0.0 L -2.88,5.0 L -2.88,-5.0 L 5.77,0.0 z "
       id="path2217" /></marker><marker
     style="overflow:visible"
     id="marker2209"
     refX="0.0"
     refY="0.0"
     orient="auto"
     inkscape:stockid="TriangleOutS"
     inkscape:isstock="true"><path
       transform="scale(0.2)"
       style="fill-rule:evenodd;stroke:#79740e;stroke-width:1pt;stroke-opacity:1;fill:#79740e;fill-opacity:1"
       d="M 5.77,0.0 L -2.88,5.0 L -2.88,-5.0 L 5.77,0.0 z "
       id="path2207" /></marker><marker
     style="overflow:visible;"
     id="marker2041"
     refX="0.0"
     refY="0.0"
     orient="auto"
     inkscape:stockid="Arrow2Mend"
     inkscape:isstock="true"><path
       transform="scale(0.6) rotate(180) translate(0,0)"
       d="M 8.7185878,4.0337352 L -2.2072895,0.016013256 L 8.7185884,-4.0017078 C 6.9730900,-1.6296469 6.9831476,1.6157441 8.7185878,4.0337352 z "
       style="fill-rule:evenodd;stroke-width:0.625;stroke-linejoin:round;stroke:#79740e;stroke-opacity:1;fill:#79740e;fill-opacity:1"
       id="path2039" /></marker><marker
     style="overflow:visible;"
     id="marker2031"
     refX="0.0"
     refY="0.0"
     orient="auto"
     inkscape:stockid="Arrow2Mend"
     inkscape:isstock="true"><path
       transform="scale(0.6) rotate(180) translate(0,0)"
       d="M 8.7185878,4.0337352 L -2.2072895,0.016013256 L 8.7185884,-4.0017078 C 6.9730900,-1.6296469 6.9831476,1.6157441 8.7185878,4.0337352 z "
       style="fill-rule:evenodd;stroke-width:0.625;stroke-linejoin:round;stroke:#79740e;stroke-opacity:1;fill:#79740e;fill-opacity:1"
       id="path2029" /></marker><marker
     style="overflow:visible;"
     id="marker2021"
     refX="0.0"
     refY="0.0"
     orient="auto"
     inkscape:stockid="Arrow2Mend"
     inkscape:isstock="true"><path
       transform="scale(0.6) rotate(180) translate(0,0)"
       d="M 8.7185878,4.0337352 L -2.2072895,0.016013256 L 8.7185884,-4.0017078 C 6.9730900,-1.6296469 6.9831476,1.6157441 8.7185878,4.0337352 z "
       style="fill-rule:evenodd;stroke-width:0.625;stroke-linejoin:round;stroke:#79740e;stroke-opacity:1;fill:#79740e;fill-opacity:1"
       id="path2019" /></marker><marker
     style="overflow:visible;"
     id="marker2011"
     refX="0.0"
     refY="0.0"
     orient="auto"
     inkscape:stockid="Arrow2Mend"
     inkscape:isstock="true"><path
       transform="scale(0.6) rotate(180) translate(0,0)"
       d="M 8.7185878,4.0337352 L -2.2072895,0.016013256 L 8.7185884,-4.0017078 C 6.9730900,-1.6296469 6.9831476,1.6157441 8.7185878,4.0337352 z "
       style="fill-rule:evenodd;stroke-width:0.625;stroke-linejoin:round;stroke:#79740e;stroke-opacity:1;fill:#79740e;fill-opacity:1"
       id="path2009" /></marker><marker
     style="overflow:visible;"
     id="marker2001"
     refX="0.0"
     refY="0.0"
     orient="auto"
     inkscape:stockid="Arrow2Mend"
     inkscape:isstock="true"><path
       transform="scale(0.6) rotate(180) translate(0,0)"
       d="M 8.7185878,4.0337352 L -2.2072895,0.016013256 L 8.7185884,-4.0017078 C 6.9730900,-1.6296469 6.9831476,1.6157441 8.7185878,4.0337352 z "
       style="fill-rule:evenodd;stroke-width:0.625;stroke-linejoin:round;stroke:#79740e;stroke-opacity:1;fill:#79740e;fill-opacity:1"
       id="path1999" /></marker><marker
     style="overflow:visible;"
     id="marker1863"
     refX="0.0"
     refY="0.0"
     orient="auto"
     inkscape:stockid="Arrow1Send"
     inkscape:isstock="true"><path
       transform="scale(0.2) rotate(180) translate(6,0)"
       style="fill-rule:evenodd;stroke:#79740e;stroke-width:1pt;stroke-opacity:1;fill:#79740e;fill-opacity:1"
       d="M 0.0,0.0 L 5.0,-5.0 L -12.5,0.0 L 5.0,5.0 L 0.0,0.0 z "
       id="path1861" /></marker><marker
     style="overflow:visible;"
     id="marker1853"
     refX="0.0"
     refY="0.0"
     orient="auto"
     inkscape:stockid="Arrow1Send"
     inkscape:isstock="true"><path
       transform="scale(0.2) rotate(180) translate(6,0)"
       style="fill-rule:evenodd;stroke:#79740e;stroke-width:1pt;stroke-opacity:1;fill:#79740e;fill-opacity:1"
       d="M 0.0,0.0 L 5.0,-5.0 L -12.5,0.0 L 5.0,5.0 L 0.0,0.0 z "
       id="path1851" /></marker><marker
     style="overflow:visible;"
     id="marker1843"
     refX="0.0"
     refY="0.0"
     orient="auto"
     inkscape:stockid="Arrow1Send"
     inkscape:isstock="true"><path
       transform="scale(0.2) rotate(180) translate(6,0)"
       style="fill-rule:evenodd;stroke:#79740e;stroke-width:1pt;stroke-opacity:1;fill:#79740e;fill-opacity:1"
       d="M 0.0,0.0 L 5.0,-5.0 L -12.5,0.0 L 5.0,5.0 L 0.0,0.0 z "
       id="path1841" /></marker><marker
     style="overflow:visible;"
     id="marker1833"
     refX="0.0"
     refY="0.0"
     orient="auto"
     inkscape:stockid="Arrow1Send"
     inkscape:isstock="true"><path
       transform="scale(0.2) rotate(180) translate(6,0)"
       style="fill-rule:evenodd;stroke:#79740e;stroke-width:1pt;stroke-opacity:1;fill:#79740e;fill-opacity:1"
       d="M 0.0,0.0 L 5.0,-5.0 L -12.5,0.0 L 5.0,5.0 L 0.0,0.0 z "
       id="path1831" /></marker><marker
     style="overflow:visible;"
     id="marker1823"
     refX="0.0"
     refY="0.0"
     orient="auto"
     inkscape:stockid="Arrow1Send"
     inkscape:isstock="true"><path
       transform="scale(0.2) rotate(180) translate(6,0)"
       style="fill-rule:evenodd;stroke:#79740e;stroke-width:1pt;stroke-opacity:1;fill:#79740e;fill-opacity:1"
       d="M 0.0,0.0 L 5.0,-5.0 L -12.5,0.0 L 5.0,5.0 L 0.0,0.0 z "
       id="path1821" /></marker><marker
     style="overflow:visible;"
     id="marker1715"
     refX="0.0"
     refY="0.0"
     orient="auto"
     inkscape:stockid="Arrow1Mend"
     inkscape:isstock="true"><path
       transform="scale(0.4) rotate(180) translate(10,0)"
       style="fill-rule:evenodd;stroke:#79740e;stroke-width:1pt;stroke-opacity:1;fill:#79740e;fill-opacity:1"
       d="M 0.0,0.0 L 5.0,-5.0 L -12.5,0.0 L 5.0,5.0 L 0.0,0.0 z "
       id="path1713" /></marker><marker
     style="overflow:visible;"
     id="marker1705"
     refX="0.0"
     refY="0.0"
     orient="auto"
     inkscape:stockid="Arrow1Mend"
     inkscape:isstock="true"><path
       transform="scale(0.4) rotate(180) translate(10,0)"
       style="fill-rule:evenodd;stroke:#79740e;stroke-width:1pt;stroke-opacity:1;fill:#79740e;fill-opacity:1"
       d="M 0.0,0.0 L 5.0,-5.0 L -12.5,0.0 L 5.0,5.0 L 0.0,0.0 z "
       id="path1703" /></marker><marker
     style="overflow:visible;"
     id="marker1695"
     refX="0.0"
     refY="0.0"
     orient="auto"
     inkscape:stockid="Arrow1Mend"
     inkscape:isstock="true"><path
       transform="scale(0.4) rotate(180) translate(10,0)"
       style="fill-rule:evenodd;stroke:#79740e;stroke-width:1pt;stroke-opacity:1;fill:#79740e;fill-opacity:1"
       d="M 0.0,0.0 L 5.0,-5.0 L -12.5,0.0 L 5.0,5.0 L 0.0,0.0 z "
       id="path1693" /></marker><marker
     style="overflow:visible;"
     id="marker1685"
     refX="0.0"
     refY="0.0"
     orient="auto"
     inkscape:stockid="Arrow1Mend"
     inkscape:isstock="true"><path
       transform="scale(0.4) rotate(180) translate(10,0)"
       style="fill-rule:evenodd;stroke:#79740e;stroke-width:1pt;stroke-opacity:1;fill:#79740e;fill-opacity:1"
       d="M 0.0,0.0 L 5.0,-5.0 L -12.5,0.0 L 5.0,5.0 L 0.0,0.0 z "
       id="path1683" /></marker><marker
     style="overflow:visible;"
     id="marker1675"
     refX="0.0"
     refY="0.0"
     orient="auto"
     inkscape:stockid="Arrow1Mend"
     inkscape:isstock="true"><path
       transform="scale(0.4) rotate(180) translate(10,0)"
       style="fill-rule:evenodd;stroke:#79740e;stroke-width:1pt;stroke-opacity:1;fill:#79740e;fill-opacity:1"
       d="M 0.0,0.0 L 5.0,-5.0 L -12.5,0.0 L 5.0,5.0 L 0.0,0.0 z "
       id="path1673" /></marker><marker
     style="overflow:visible;"
     id="marker1597"
     refX="0.0"
     refY="0.0"
     orient="auto"
     inkscape:stockid="Arrow1Lend"
     inkscape:isstock="true"><path
       transform="scale(0.8) rotate(180) translate(12.5,0)"
       style="fill-rule:evenodd;stroke:#79740e;stroke-width:1pt;stroke-opacity:1;fill:#79740e;fill-opacity:1"
       d="M 0.0,0.0 L 5.0,-5.0 L -12.5,0.0 L 5.0,5.0 L 0.0,0.0 z "
       id="path1595" /></marker><marker
     style="overflow:visible;"
     id="marker1587"
     refX="0.0"
     refY="0.0"
     orient="auto"
     inkscape:stockid="Arrow1Lend"
     inkscape:isstock="true"><path
       transform="scale(0.8) rotate(180) translate(12.5,0)"
       style="fill-rule:evenodd;stroke:#79740e;stroke-width:1pt;stroke-opacity:1;fill:#79740e;fill-opacity:1"
       d="M 0.0,0.0 L 5.0,-5.0 L -12.5,0.0 L 5.0,5.0 L 0.0,0.0 z "
       id="path1585" /></marker><marker
     style="overflow:visible;"
     id="marker1577"
     refX="0.0"
     refY="0.0"
     orient="auto"
     inkscape:stockid="Arrow1Lend"
     inkscape:isstock="true"><path
       transform="scale(0.8) rotate(180) translate(12.5,0)"
       style="fill-rule:evenodd;stroke:#79740e;stroke-width:1pt;stroke-opacity:1;fill:#79740e;fill-opacity:1"
       d="M 0.0,0.0 L 5.0,-5.0 L -12.5,0.0 L 5.0,5.0 L 0.0,0.0 z "
       id="path1575" /></marker><marker
     style="overflow:visible;"
     id="marker1567"
     refX="0.0"
     refY="0.0"
     orient="auto"
     inkscape:stockid="Arrow1Lend"
     inkscape:isstock="true"><path
       transform="scale(0.8) rotate(180) translate(12.5,0)"
       style="fill-rule:evenodd;stroke:#79740e;stroke-width:1pt;stroke-opacity:1;fill:#79740e;fill-opacity:1"
       d="M 0.0,0.0 L 5.0,-5.0 L -12.5,0.0 L 5.0,5.0 L 0.0,0.0 z "
       id="path1565" /></marker><marker
     style="overflow:visible;"
     id="marker1557"
     refX="0.0"
     refY="0.0"
     orient="auto"
     inkscape:stockid="Arrow1Lend"
     inkscape:isstock="true"><path
       transform="scale(0.8) rotate(180) translate(12.5,0)"
       style="fill-rule:evenodd;stroke:#79740e;stroke-width:1pt;stroke-opacity:1;fill:#79740e;fill-opacity:1"
       d="M 0.0,0.0 L 5.0,-5.0 L -12.5,0.0 L 5.0,5.0 L 0.0,0.0 z "
       id="path1555" /></marker><filter
     style="color-interpolation-filters:sRGB;"
     inkscape:label="Drop Shadow"
     id="filter3205"><feFlood
       flood-opacity="1"
       flood-color="rgb(29,32,33)"
       result="flood"
       id="feFlood3195" /><feComposite
       in="flood"
       in2="SourceGraphic"
       operator="in"
       result="composite1"
       id="feComposite3197" /><feGaussianBlur
       in="composite1"
       stdDeviation="0"
       result="blur"
       id="feGaussianBlur3199" /><feOffset
       dx="-5"
       dy="5"
       result="offset"
       id="feOffset3201" /><feComposite
       in="SourceGraphic"
       in2="offset"
       operator="over"
       result="fbSourceGraphic"
       id="feComposite3203" /><feColorMatrix
       result="fbSourceGraphicAlpha"
       in="fbSourceGraphic"
       values="0 0 0 -1 0 0 0 0 -1 0 0 0 0 -1 0 0 0 0 1 0"
       id="feColorMatrix3207" /><feFlood
       id="feFlood3209"
       flood-opacity="1"
       flood-color="rgb(235,219,178)"
       result="flood"
       in="fbSourceGraphic" /><feComposite
       in2="fbSourceGraphic"
       id="feComposite3211"
       in="flood"
       operator="in"
       result="composite1" /><feGaussianBlur
       id="feGaussianBlur3213"
       in="composite1"
       stdDeviation="0"
       result="blur" /><feOffset
       id="feOffset3215"
       dx="-5"
       dy="5"
       result="offset" /><feComposite
       in2="offset"
       id="feComposite3217"
       in="fbSourceGraphic"
       operator="over"
       result="composite2" /></filter><mask
     maskUnits="userSpaceOnUse"
     id="mask1381"><path
       class="st0"
       d="M 715.1,226.8 366.9,16 19.9,226.8 V 628.3 L 367.5,829 715.1,628.3 Z"
       id="path1383"
       style="fill:#ffffff;fill-opacity:1" /></mask><clipPath
     clipPathUnits="userSpaceOnUse"
     id="clipPath1526"><path
       class="st0"
       d="M 715.1,226.8 366.9,16 19.9,226.8 V 628.3 L 367.5,829 715.1,628.3 Z"
       id="path1528"
       style="fill:#ffffff;fill-opacity:1" /></clipPath></defs><sodipodi:namedview
   pagecolor="#ffffff"
   bordercolor="#666666"
   borderopacity="1"
   objecttolerance="10"
   gridtolerance="10"
   guidetolerance="10"
   inkscape:pageopacity="0"
   inkscape:pageshadow="2"
   inkscape:window-width="1680"
   inkscape:window-height="1029"
   id="namedview54"
   showgrid="false"
   inkscape:object-paths="true"
   inkscape:zoom="0.31617317"
   inkscape:cx="-89.196923"
   inkscape:cy="625.00571"
   inkscape:window-x="0"
   inkscape:window-y="0"
   inkscape:window-maximized="1"
   inkscape:current-layer="layer3"
   inkscape:document-rotation="0"
   inkscape:snap-global="true"
   showguides="true"
   inkscape:guide-bbox="true"
   inkscape:snap-object-midpoints="true" />
<style
   type="text/css"
   id="style2">
	.st0{fill:#428BCA;}
	.st1{opacity:0.25;fill:url(#SVGID_1_);enable-background:new    ;}
	.st2{fill:#3674A8;}
	.st3{fill:#E6B35A;}
	.st4{fill:#FFFFFF;}
	.st5{opacity:0.9;fill:#FFFFFF;enable-background:new    ;}
</style>
<title
   id="title4">shiny</title>

<linearGradient
   id="SVGID_1_"
   gradientUnits="userSpaceOnUse"
   x1="366.1405"
   y1="-182.39"
   x2="367.4405"
   y2="281.13"
   gradientTransform="matrix(1 0 0 1 0 60)">
	<stop
   offset="0"
   style="stop-color:#FFFFFF;stop-opacity:0.83"
   id="stop8" />
	<stop
   offset="0.56"
   style="stop-color:#FFFFFF;stop-opacity:0.37"
   id="stop10" />
	<stop
   offset="1"
   style="stop-color:#FFFFFF;stop-opacity:0"
   id="stop12" />
</linearGradient>



















<g
   inkscape:groupmode="layer"
   id="layer2"
   inkscape:label="scales"><g
     id="g1518"
     clip-path="url(#clipPath1526)"><rect
       style="fill:#fabd2f;fill-opacity:1;stroke:#b57614;stroke-width:7.55906;stroke-linecap:round;stroke-linejoin:bevel;stroke-miterlimit:4;stroke-dasharray:none;stroke-opacity:1"
       id="rect1132"
       width="196.25"
       height="852"
       x="138.76433"
       y="-240.82318"
       transform="rotate(30)" /><rect
       style="fill:#d79921;fill-opacity:1;stroke:#b57614;stroke-width:7.55906;stroke-linecap:round;stroke-linejoin:bevel;stroke-miterlimit:4;stroke-dasharray:none;stroke-opacity:1"
       id="rect1132-3"
       width="196.25"
       height="852"
       x="335.01434"
       y="-240.82318"
       transform="rotate(30)" /><rect
       style="fill:#fabd2f;fill-opacity:1;stroke:#b57614;stroke-width:7.55906;stroke-linecap:round;stroke-linejoin:bevel;stroke-miterlimit:4;stroke-dasharray:none;stroke-opacity:1"
       id="rect1132-3-6"
       width="196.25"
       height="852"
       x="531.26434"
       y="-240.82321"
       transform="rotate(30)" /><rect
       style="fill:#d79921;fill-opacity:1;stroke:#b57614;stroke-width:7.55906;stroke-linecap:round;stroke-linejoin:bevel;stroke-miterlimit:4;stroke-dasharray:none;stroke-opacity:1"
       id="rect1132-3-6-7"
       width="196.25"
       height="852"
       x="727.51434"
       y="-240.82318"
       transform="rotate(30)" /><path
       style="font-variation-settings:normal;opacity:1;vector-effect:none;fill:none;fill-opacity:1;stroke:#b57614;stroke-width:11.3386;stroke-linecap:butt;stroke-linejoin:miter;stroke-miterlimit:4;stroke-dasharray:none;stroke-dashoffset:0;stroke-opacity:1;stop-color:#000000;stop-opacity:1"
       d="m 195.84936,672.50762 43.30127,25"
       id="path1220-6" /><path
       style="font-variation-settings:normal;opacity:1;vector-effect:none;fill:none;fill-opacity:1;stroke:#b57614;stroke-width:11.3386;stroke-linecap:butt;stroke-linejoin:miter;stroke-miterlimit:4;stroke-dasharray:none;stroke-dashoffset:0;stroke-opacity:1;stop-color:#000000;stop-opacity:1"
       d="m 220.84936,629.20635 43.30127,25"
       id="path1220-5-2" /><path
       style="font-variation-settings:normal;opacity:1;vector-effect:none;fill:none;fill-opacity:1;stroke:#b57614;stroke-width:11.3386;stroke-linecap:butt;stroke-linejoin:miter;stroke-miterlimit:4;stroke-dasharray:none;stroke-dashoffset:0;stroke-opacity:1;stop-color:#000000;stop-opacity:1"
       d="m 245.84936,585.90508 43.30127,25"
       id="path1220-9" /><path
       style="font-variation-settings:normal;opacity:1;vector-effect:none;fill:none;fill-opacity:1;stroke:#b57614;stroke-width:11.3386;stroke-linecap:butt;stroke-linejoin:miter;stroke-miterlimit:4;stroke-dasharray:none;stroke-dashoffset:0;stroke-opacity:1;stop-color:#000000;stop-opacity:1"
       d="m 270.84937,542.60381 43.30127,25"
       id="path1220-5-1" /><path
       style="font-variation-settings:normal;opacity:1;vector-effect:none;fill:none;fill-opacity:1;stroke:#b57614;stroke-width:11.3386;stroke-linecap:butt;stroke-linejoin:miter;stroke-miterlimit:4;stroke-dasharray:none;stroke-dashoffset:0;stroke-opacity:1;stop-color:#000000;stop-opacity:1"
       d="m 295.84937,499.30254 43.30127,25"
       id="path1220-6-2" /><path
       style="font-variation-settings:normal;opacity:1;vector-effect:none;fill:none;fill-opacity:1;stroke:#b57614;stroke-width:11.3386;stroke-linecap:butt;stroke-linejoin:miter;stroke-miterlimit:4;stroke-dasharray:none;stroke-dashoffset:0;stroke-opacity:1;stop-color:#000000;stop-opacity:1"
       d="m 320.84936,456.00127 43.30128,25"
       id="path1220-5-2-7" /><path
       style="font-variation-settings:normal;opacity:1;vector-effect:none;fill:none;fill-opacity:1;stroke:#b57614;stroke-width:11.3386;stroke-linecap:butt;stroke-linejoin:miter;stroke-miterlimit:4;stroke-dasharray:none;stroke-dashoffset:0;stroke-opacity:1;stop-color:#000000;stop-opacity:1"
       d="m 345.84936,412.7 43.30128,25"
       id="path1220-0" /><path
       style="font-variation-settings:normal;opacity:1;vector-effect:none;fill:none;fill-opacity:1;stroke:#b57614;stroke-width:11.3386;stroke-linecap:butt;stroke-linejoin:miter;stroke-miterlimit:4;stroke-dasharray:none;stroke-dashoffset:0;stroke-opacity:1;stop-color:#000000;stop-opacity:1"
       d="m 370.84936,369.39873 43.30128,25"
       id="path1220-5-9" /><path
       style="font-variation-settings:normal;opacity:1;vector-effect:none;fill:none;fill-opacity:1;stroke:#b57614;stroke-width:11.3386;stroke-linecap:butt;stroke-linejoin:miter;stroke-miterlimit:4;stroke-dasharray:none;stroke-dashoffset:0;stroke-opacity:1;stop-color:#000000;stop-opacity:1"
       d="m 395.84936,326.09746 43.30128,25"
       id="path1220-6-3" /><path
       style="font-variation-settings:normal;opacity:1;vector-effect:none;fill:none;fill-opacity:1;stroke:#b57614;stroke-width:11.3386;stroke-linecap:butt;stroke-linejoin:miter;stroke-miterlimit:4;stroke-dasharray:none;stroke-dashoffset:0;stroke-opacity:1;stop-color:#000000;stop-opacity:1"
       d="m 420.84936,282.79619 43.30128,25"
       id="path1220-5-2-6" /><path
       style="font-variation-settings:normal;opacity:1;vector-effect:none;fill:none;fill-opacity:1;stroke:#b57614;stroke-width:11.3386;stroke-linecap:butt;stroke-linejoin:miter;stroke-miterlimit:4;stroke-dasharray:none;stroke-dashoffset:0;stroke-opacity:1;stop-color:#000000;stop-opacity:1"
       d="m 445.84936,239.49492 43.30128,25"
       id="path1220-9-0" /><path
       style="font-variation-settings:normal;opacity:1;vector-effect:none;fill:none;fill-opacity:1;stroke:#b57614;stroke-width:11.3386;stroke-linecap:butt;stroke-linejoin:miter;stroke-miterlimit:4;stroke-dasharray:none;stroke-dashoffset:0;stroke-opacity:1;stop-color:#000000;stop-opacity:1"
       d="m 470.84936,196.19365 43.30128,25"
       id="path1220-5-1-6" /><path
       style="font-variation-settings:normal;opacity:1;vector-effect:none;fill:none;fill-opacity:1;stroke:#b57614;stroke-width:11.3386;stroke-linecap:butt;stroke-linejoin:miter;stroke-miterlimit:4;stroke-dasharray:none;stroke-dashoffset:0;stroke-opacity:1;stop-color:#000000;stop-opacity:1"
       d="m 495.84936,152.89238 43.30128,25"
       id="path1220-6-2-2" /><path
       style="font-variation-settings:normal;opacity:1;vector-effect:none;fill:none;fill-opacity:1;stroke:#b57614;stroke-width:11.3386;stroke-linecap:butt;stroke-linejoin:miter;stroke-miterlimit:4;stroke-dasharray:none;stroke-dashoffset:0;stroke-opacity:1;stop-color:#000000;stop-opacity:1"
       d="m 366.42511,770.36179 43.30127,25"
       id="path1220-6-8" /><path
       style="font-variation-settings:normal;opacity:1;vector-effect:none;fill:none;fill-opacity:1;stroke:#b57614;stroke-width:11.3386;stroke-linecap:butt;stroke-linejoin:miter;stroke-miterlimit:4;stroke-dasharray:none;stroke-dashoffset:0;stroke-opacity:1;stop-color:#000000;stop-opacity:1"
       d="m 441.42511,640.45798 43.30127,25"
       id="path1220-5-1-0" /><path
       style="font-variation-settings:normal;opacity:1;vector-effect:none;fill:none;fill-opacity:1;stroke:#b57614;stroke-width:11.3386;stroke-linecap:butt;stroke-linejoin:miter;stroke-miterlimit:4;stroke-dasharray:none;stroke-dashoffset:0;stroke-opacity:1;stop-color:#000000;stop-opacity:1"
       d="m 516.4251,510.55417 43.30128,25"
       id="path1220-0-5" /><path
       style="font-variation-settings:normal;opacity:1;vector-effect:none;fill:none;fill-opacity:1;stroke:#b57614;stroke-width:11.3386;stroke-linecap:butt;stroke-linejoin:miter;stroke-miterlimit:4;stroke-dasharray:none;stroke-dashoffset:0;stroke-opacity:1;stop-color:#000000;stop-opacity:1"
       d="m 591.4251,380.65036 43.30128,25"
       id="path1220-5-2-6-2" /><path
       style="font-variation-settings:normal;opacity:1;vector-effect:none;fill:none;fill-opacity:1;stroke:#b57614;stroke-width:11.3386;stroke-linecap:butt;stroke-linejoin:miter;stroke-miterlimit:4;stroke-dasharray:none;stroke-dashoffset:0;stroke-opacity:1;stop-color:#000000;stop-opacity:1"
       d="m 666.4251,250.74655 43.30128,25"
       id="path1220-6-2-2-7" /><path
       style="font-variation-settings:normal;opacity:1;vector-effect:none;fill:none;fill-opacity:1;stroke:#b57614;stroke-width:11.3386;stroke-linecap:butt;stroke-linejoin:miter;stroke-miterlimit:4;stroke-dasharray:none;stroke-dashoffset:0;stroke-opacity:1;stop-color:#000000;stop-opacity:1"
       d="m 23.484013,579.35317 43.30127,25"
       id="path1220-6-36" /><path
       style="font-variation-settings:normal;opacity:1;vector-effect:none;fill:none;fill-opacity:1;stroke:#b57614;stroke-width:11.3386;stroke-linecap:butt;stroke-linejoin:miter;stroke-miterlimit:4;stroke-dasharray:none;stroke-dashoffset:0;stroke-opacity:1;stop-color:#000000;stop-opacity:1"
       d="m 73.484013,492.75063 43.301267,25"
       id="path1220-9-29" /><path
       style="font-variation-settings:normal;opacity:1;vector-effect:none;fill:none;fill-opacity:1;stroke:#b57614;stroke-width:11.3386;stroke-linecap:butt;stroke-linejoin:miter;stroke-miterlimit:4;stroke-dasharray:none;stroke-dashoffset:0;stroke-opacity:1;stop-color:#000000;stop-opacity:1"
       d="m 123.48402,406.14809 43.30127,25"
       id="path1220-6-2-1" /><path
       style="font-variation-settings:normal;opacity:1;vector-effect:none;fill:none;fill-opacity:1;stroke:#b57614;stroke-width:11.3386;stroke-linecap:butt;stroke-linejoin:miter;stroke-miterlimit:4;stroke-dasharray:none;stroke-dashoffset:0;stroke-opacity:1;stop-color:#000000;stop-opacity:1"
       d="m 173.48401,319.54555 43.30128,25"
       id="path1220-0-4" /><path
       style="font-variation-settings:normal;opacity:1;vector-effect:none;fill:none;fill-opacity:1;stroke:#b57614;stroke-width:11.3386;stroke-linecap:butt;stroke-linejoin:miter;stroke-miterlimit:4;stroke-dasharray:none;stroke-dashoffset:0;stroke-opacity:1;stop-color:#000000;stop-opacity:1"
       d="m 223.48401,232.94301 43.30128,25"
       id="path1220-6-3-8" /><path
       style="font-variation-settings:normal;opacity:1;vector-effect:none;fill:none;fill-opacity:1;stroke:#b57614;stroke-width:11.3386;stroke-linecap:butt;stroke-linejoin:miter;stroke-miterlimit:4;stroke-dasharray:none;stroke-dashoffset:0;stroke-opacity:1;stop-color:#000000;stop-opacity:1"
       d="m 273.48401,146.34047 43.30128,25"
       id="path1220-9-0-5" /><path
       style="font-variation-settings:normal;opacity:1;vector-effect:none;fill:none;fill-opacity:1;stroke:#b57614;stroke-width:11.3386;stroke-linecap:butt;stroke-linejoin:miter;stroke-miterlimit:4;stroke-dasharray:none;stroke-dashoffset:0;stroke-opacity:1;stop-color:#000000;stop-opacity:1"
       d="m 323.48401,59.737933 43.30128,25"
       id="path1220-6-2-2-3" /><g
       aria-label="BP"
       transform="rotate(-60,-3.3385703,4.1864902)"
       id="text1442"
       style="font-style:normal;font-weight:normal;font-size:85.3333px;line-height:1.25;font-family:sans-serif;letter-spacing:0px;word-spacing:0px;fill:#b57614;fill-opacity:1;stroke:none"><path
         d="m -491.83753,658.59723 v -55.80798 h 17.83466 q 4.35199,0 7.93599,0.768 3.66933,0.68267 6.31467,2.304 2.73066,1.536 4.18133,4.18133 1.536,2.64533 1.536,6.48533 0,4.01067 -2.048,7.424 -2.048,3.41333 -5.71733,4.69333 v 0.34133 q 4.608,1.024 7.59466,4.352 3.072,3.24267 3.072,8.87467 0,4.18133 -1.62133,7.25333 -1.62134,3.07199 -4.52267,5.11999 -2.816,2.048 -6.74133,3.072 -3.92533,0.93867 -8.53333,0.93867 z m 9.89866,-32.76799 h 7.08266 q 5.888,0 8.448,-2.13333 2.64533,-2.13333 2.64533,-5.71733 0,-4.096 -2.73066,-5.80266 -2.73067,-1.70667 -8.192,-1.70667 h -7.25333 z m 0,25.08799 h 8.36266 q 6.144,0 9.472,-2.21866 3.328,-2.304 3.328,-6.99733 0,-4.43734 -3.24267,-6.4 -3.24266,-2.048 -9.55733,-2.048 h -8.36266 z"
         style="font-style:normal;font-variant:normal;font-weight:600;font-stretch:normal;font-size:85.3333px;font-family:'Source Sans Pro';-inkscape-font-specification:'Source Sans Pro Semi-Bold';fill:#b57614;fill-opacity:1"
         id="path1477" /><path
         d="m -440.89371,658.59723 v -55.80798 h 17.57866 q 4.608,0 8.53333,0.85334 4.01067,0.85333 6.912,2.90133 2.90133,2.048 4.52266,5.376 1.62134,3.24266 1.62134,8.10666 0,4.608 -1.62134,8.02133 -1.62133,3.41333 -4.52266,5.71733 -2.816,2.21867 -6.74133,3.328 -3.84,1.024 -8.36267,1.024 h -8.02133 v 20.47999 z m 9.89866,-28.41599 h 7.25333 q 12.288,0 12.288,-10.15466 0,-5.29067 -3.24267,-7.25333 -3.15733,-2.048 -9.38666,-2.048 h -6.912 z"
         style="font-style:normal;font-variant:normal;font-weight:600;font-stretch:normal;font-size:85.3333px;font-family:'Source Sans Pro';-inkscape-font-specification:'Source Sans Pro Semi-Bold';fill:#b57614;fill-opacity:1"
         id="path1479" /></g><g
       aria-label="BCE"
       transform="rotate(-60)"
       id="text1442-7"
       style="font-style:normal;font-weight:normal;font-size:85.3333px;line-height:1.25;font-family:sans-serif;letter-spacing:0px;word-spacing:0px;fill:#b57614;fill-opacity:1;stroke:none"><path
         d="m -490.80586,457.32663 v -55.80798 h 17.83466 q 4.352,0 7.936,0.768 3.66933,0.68267 6.31466,2.304 2.73067,1.536 4.18134,4.18133 1.536,2.64534 1.536,6.48533 0,4.01067 -2.048,7.424 -2.048,3.41333 -5.71733,4.69333 v 0.34134 q 4.60799,1.02399 7.59466,4.35199 3.072,3.24267 3.072,8.87467 0,4.18133 -1.62134,7.25333 -1.62133,3.072 -4.52266,5.11999 -2.816,2.048 -6.74133,3.072 -3.92533,0.93867 -8.53333,0.93867 z m 9.89867,-32.76799 h 7.08266 q 5.888,0 8.448,-2.13333 2.64533,-2.13333 2.64533,-5.71733 0,-4.096 -2.73067,-5.80266 -2.73066,-1.70667 -8.19199,-1.70667 h -7.25333 z m 0,25.08799 h 8.36266 q 6.144,0 9.472,-2.21866 3.32799,-2.304 3.32799,-6.99733 0,-4.43733 -3.24266,-6.4 -3.24267,-2.048 -9.55733,-2.048 h -8.36266 z"
         style="font-style:normal;font-variant:normal;font-weight:600;font-stretch:normal;font-size:85.3333px;font-family:'Source Sans Pro';-inkscape-font-specification:'Source Sans Pro Semi-Bold';fill:#b57614;fill-opacity:1"
         id="path1470" /><path
         d="m -417.59004,458.35063 q -5.29066,0 -9.89866,-1.87733 -4.608,-1.87734 -8.02133,-5.54667 -3.328,-3.66933 -5.29067,-9.04533 -1.96266,-5.376 -1.96266,-12.28799 0,-6.82667 1.96266,-12.20266 2.048,-5.46133 5.46133,-9.216 3.49867,-3.75466 8.10667,-5.71733 4.69333,-1.96267 9.98399,-1.96267 5.29067,0 9.38667,2.13334 4.09599,2.13333 6.74133,4.94933 l -5.29067,6.39999 q -2.21866,-2.21866 -4.77866,-3.49866 -2.56,-1.36533 -5.80267,-1.36533 -3.41333,0 -6.31466,1.45066 -2.816,1.36534 -4.94933,4.01067 -2.048,2.56 -3.24267,6.31466 -1.10933,3.75467 -1.10933,8.448 0,9.55733 4.096,15.01866 4.18133,5.376 11.26399,5.376 3.75467,0 6.656,-1.536 2.90133,-1.62134 5.29066,-4.18133 l 5.29067,6.22933 q -3.41333,3.92533 -7.85066,6.05866 -4.352,2.048 -9.728,2.048 z"
         style="font-style:normal;font-variant:normal;font-weight:600;font-stretch:normal;font-size:85.3333px;font-family:'Source Sans Pro';-inkscape-font-specification:'Source Sans Pro Semi-Bold';fill:#b57614;fill-opacity:1"
         id="path1472" /><path
         d="m -390.7102,457.32663 v -55.80798 h 33.62132 v 8.36267 h -23.72266 v 14.25066 h 20.05333 v 8.36266 h -20.05333 v 16.46933 h 24.57599 v 8.36266 z"
         style="font-style:normal;font-variant:normal;font-weight:600;font-stretch:normal;font-size:85.3333px;font-family:'Source Sans Pro';-inkscape-font-specification:'Source Sans Pro Semi-Bold';fill:#b57614;fill-opacity:1"
         id="path1474" /></g></g></g><g
   inkscape:groupmode="layer"
   id="layer3"
   inkscape:label="text"><g
     id="g1234"
     transform="translate(-7.7853425,-2.3919091)"><g
       aria-label="era"
       transform="translate(-0.65053253,-0.10371094)"
       id="text1532"
       style="font-style:normal;font-variant:normal;font-weight:bold;font-stretch:normal;font-size:240px;line-height:1.25;font-family:'Bungee Shade';-inkscape-font-specification:'Bungee Shade Bold';font-variant-ligatures:normal;font-variant-position:normal;font-variant-caps:normal;font-variant-numeric:normal;font-variant-alternates:normal;font-variant-east-asian:normal;font-feature-settings:normal;font-variation-settings:normal;text-indent:0;text-align:start;text-decoration:none;text-decoration-line:none;text-decoration-style:solid;text-decoration-color:#000000;letter-spacing:0px;word-spacing:0px;text-transform:none;writing-mode:lr-tb;direction:ltr;text-orientation:mixed;dominant-baseline:auto;baseline-shift:baseline;text-anchor:start;white-space:normal;shape-padding:0;shape-margin:0;inline-size:0;opacity:1;vector-effect:none;fill:#282828;fill-opacity:1;stroke:none;stroke-width:22.6772;stroke-linecap:butt;stroke-linejoin:miter;stroke-miterlimit:4;stroke-dasharray:none;stroke-dashoffset:0;stroke-opacity:1;stop-color:#000000;stop-opacity:1"><path
         d="m 214.05053,535.86371 h -111.36 q -5.759997,0 -8.399997,-2.64 -2.64,-2.64 -2.64,-8.4 v -155.52 q 0,-3.12 0.72,-5.28 0.96,-2.16 2.64,-3.6 l 30.959997,-26.16 q 1.2,-0.96 3.12,-1.44 2.16,-0.72 4.56,-0.72 h 111.36 q 5.76,0 8.4,2.64 2.64,2.64 2.64,8.4 v 28.08 q 0,3.12 -0.96,5.28 -0.72,2.16 -2.4,3.6 l -20.64,17.04 q 2.4,1.2 3.36,3.6 1.2,2.4 1.2,6.24 v 25.68 q 0,3.12 -0.96,5.28 -0.72,2.16 -2.4,3.6 l -21.36,18 h 33.12 q 5.76,0 8.4,2.64 2.64,2.64 2.64,8.4 v 28.08 q 0,3.12 -0.96,5.28 -0.72,2.16 -2.4,3.6 l -31.2,25.92 q -0.96,0.96 -3.12,1.68 -1.92,0.72 -4.32,0.72 z m 30.96,-28.56 q 4.56,0 6.48,-1.92 2.16,-2.16 2.16,-6.72 v -28.08 q 0,-4.56 -2.16,-6.48 -1.92,-2.16 -6.48,-2.16 h -66.24 v -20.64 h 46.8 q 4.56,0 6.48,-1.92 2.16,-2.16 2.16,-6.72 v -25.68 q 0,-4.56 -2.16,-6.48 -1.92,-2.16 -6.48,-2.16 h -46.8 v -18.48 h 66.24 q 4.56,0 6.48,-1.92 2.16,-2.16 2.16,-6.72 v -28.08 q 0,-4.56 -2.16,-6.48 -1.92,-2.16 -6.48,-2.16 h -111.36 q -4.56,0 -6.72,2.16 -1.92,1.92 -1.92,6.48 v 155.52 q 0,4.56 1.92,6.72 2.16,1.92 6.72,1.92 z m -12.96,-24 v 2.4 h -80.88 v -129.6 h 80.88 v 2.4 h -78.48 v 60.24 h 59.04 v 2.4 h -59.04 v 62.16 z"
         style="font-style:normal;font-variant:normal;font-weight:bold;font-stretch:normal;font-size:240px;line-height:1.25;font-family:'Bungee Shade';-inkscape-font-specification:'Bungee Shade Bold';font-variant-ligatures:normal;font-variant-position:normal;font-variant-caps:normal;font-variant-numeric:normal;font-variant-alternates:normal;font-variant-east-asian:normal;font-feature-settings:normal;font-variation-settings:normal;text-indent:0;text-align:start;text-decoration:none;text-decoration-line:none;text-decoration-style:solid;text-decoration-color:#000000;letter-spacing:0px;word-spacing:0px;text-transform:none;writing-mode:lr-tb;direction:ltr;text-orientation:mixed;dominant-baseline:auto;baseline-shift:baseline;text-anchor:start;white-space:normal;shape-padding:0;shape-margin:0;inline-size:0;vector-effect:none;fill:#282828;fill-opacity:1;stroke:none;stroke-width:22.6772;stroke-linecap:butt;stroke-linejoin:miter;stroke-miterlimit:4;stroke-dasharray:none;stroke-dashoffset:0;stroke-opacity:1;stop-color:#000000;stop-opacity:1"
         id="path1219" /><path
         d="m 386.61046,358.50371 h -52.32 v 69.36 h 52.32 q 14.88,0 19.92,-7.2 5.04,-7.2 5.04,-20.4 v -16.8 q 0,-11.04 -6.24,-18 -6,-6.96 -18.72,-6.96 z m -26.4,19.2 h 18 q 6.24,0 8.4,3.36 2.16,3.12 2.16,7.92 v 8.16 q 0,4.8 -2.16,8.16 -2.16,3.12 -8.4,3.12 h -18 z m -25.92,108 h -2.4 v -129.6 h 54.72 q 13.92,0 20.64,7.92 6.72,7.68 6.72,19.44 v 16.56 q 0,11.04 -2.88,18.24 -2.88,6.96 -11.52,9.6 h 2.64 q 14.64,0 21.84,6.72 7.2,6.48 7.2,18.96 v 32.16 h -2.4 v -32.16 q 0,-11.76 -6.48,-17.52 -6.48,-6 -20.16,-6 h -67.92 z m 17.28,21.6 q 4.56,0 6.48,-1.92 2.16,-2.16 2.16,-6.72 v -47.04 h 33.6 q 5.04,0 6.96,2.64 2.16,2.4 2.16,7.68 v 36.72 q 0,4.56 1.92,6.72 2.16,1.92 6.72,1.92 h 37.2 q 4.56,0 6.48,-1.92 2.16,-2.16 2.16,-6.72 v -50.88 q 0,-15.12 -8.16,-24.24 -7.92,-9.12 -20.88,-10.56 7.44,-3.12 10.32,-10.08 3.12,-7.2 3.12,-17.28 v -11.04 q 0,-17.76 -10.32,-28.8 -10.08,-11.28 -36.96,-11.28 h -79.92 q -4.56,0 -6.72,2.16 -1.92,1.92 -1.92,6.48 v 155.52 q 0,4.56 1.92,6.72 2.16,1.92 6.72,1.92 z m 7.68,0.24 -31.2,25.92 q -0.96,0.96 -3.12,1.68 -1.92,0.72 -4.32,0.72 h -36.96 q -5.76,0 -8.4,-2.64 -2.64,-2.64 -2.64,-8.4 v -155.52 q 0,-3.12 0.72,-5.28 0.96,-2.16 2.64,-3.6 l 30.96,-26.16 q 1.2,-0.96 3.12,-1.44 2.16,-0.72 4.56,-0.72 h 79.92 q 28.56,0 39.12,12 10.56,11.76 10.56,30.48 v 11.04 q 0,8.88 -2.16,15.6 -2.16,6.48 -6.96,10.56 h -0.24 q 11.28,3.12 18,12.48 6.96,9.36 6.96,23.52 v 50.88 q 0,3.12 -0.96,5.28 -0.72,2.16 -2.4,3.6 l -31.2,25.92 q -0.96,0.96 -3.12,1.68 -1.92,0.72 -4.32,0.72 h -37.2 q -5.76,0 -8.4,-2.64 -2.64,-2.64 -2.64,-8.4 v -36.72 q 0,-3.84 -1.44,-5.76 -1.44,-2.16 -5.28,-2.16 h -0.24 v 18.48 q 0,3.12 -0.96,5.28 -0.72,2.16 -2.4,3.6 z"
         style="font-style:normal;font-variant:normal;font-weight:bold;font-stretch:normal;font-size:240px;line-height:1.25;font-family:'Bungee Shade';-inkscape-font-specification:'Bungee Shade Bold';font-variant-ligatures:normal;font-variant-position:normal;font-variant-caps:normal;font-variant-numeric:normal;font-variant-alternates:normal;font-variant-east-asian:normal;font-feature-settings:normal;font-variation-settings:normal;text-indent:0;text-align:start;text-decoration:none;text-decoration-line:none;text-decoration-style:solid;text-decoration-color:#000000;letter-spacing:0px;word-spacing:0px;text-transform:none;writing-mode:lr-tb;direction:ltr;text-orientation:mixed;dominant-baseline:auto;baseline-shift:baseline;text-anchor:start;white-space:normal;shape-padding:0;shape-margin:0;inline-size:0;vector-effect:none;fill:#282828;fill-opacity:1;stroke:none;stroke-width:22.6772;stroke-linecap:butt;stroke-linejoin:miter;stroke-miterlimit:4;stroke-dasharray:none;stroke-dashoffset:0;stroke-opacity:1;stop-color:#000000;stop-opacity:1"
         id="path1221" /><path
         d="m 532.5301,434.58371 v 7.44 h 93.6 v -7.44 q 0,-6.48 -1.2,-12 -0.96,-5.52 -2.64,-10.32 l -16.56,-39.12 q -2.64,-6.24 -5.52,-10.32 -2.88,-4.32 -9.6,-4.32 h -23.52 q -7.2,0 -10.08,4.32 -2.88,4.08 -5.28,10.08 l -15.36,39.36 q -1.68,4.8 -2.88,10.32 -0.96,5.52 -0.96,12 z m 38.4,-49.68 q 0.96,-2.16 1.92,-3.12 1.2,-0.96 2.64,-0.96 h 6 q 1.44,0 2.4,0.96 1.2,0.96 2.16,3.12 l 11.28,36.48 h -37.68 z m 55.2,100.8 v -41.28 h -93.6 v 41.28 h -2.4 v -51.12 q 0,-6.72 0.96,-12.24 1.2,-5.76 3.12,-11.04 l 15.36,-39.36 q 2.64,-6.72 6,-11.28 3.36,-4.56 11.52,-4.56 h 23.52 q 7.92,0 11.04,4.56 3.36,4.56 6.24,11.52 l 16.56,39.12 q 1.92,5.28 2.88,11.04 1.2,5.52 1.2,12.24 v 51.12 z m -68.88,12.96 v -33.6 h 42.48 v 33.6 q 0,4.56 2.16,6.72 2.4,1.92 7.2,1.92 h 36.24 q 4.56,0 6.48,-1.92 2.16,-2.16 2.16,-6.72 v -63.36 q 0,-7.2 -2.4,-16.56 -2.16,-9.36 -6.96,-21.84 l -20.88,-54.48 q -1.44,-4.08 -4.56,-6 -2.88,-1.92 -7.44,-1.92 h -64.56 q -4.8,0 -7.92,1.92 -2.88,1.92 -4.32,6 l -20.88,54.48 q -4.8,12.48 -7.2,21.84 -2.16,9.36 -2.16,16.56 v 63.36 q 0,4.56 1.92,6.72 2.16,1.92 6.72,1.92 h 35.28 q 4.56,0 6.48,-1.92 2.16,-2.16 2.16,-6.72 z m -32.16,34.8 q -0.96,0.96 -3.12,1.68 -1.92,0.72 -4.32,0.72 h -35.28 q -5.76,0 -8.4,-2.64 -2.64,-2.64 -2.64,-8.4 v -63.36 q 0,-7.44 2.16,-16.8 2.4,-9.6 7.44,-22.56 l 20.64,-54.24 q 0.72,-2.16 1.68,-3.6 1.2,-1.68 2.4,-2.88 l 0.24,-0.24 30.72,-25.68 q 1.92,-1.68 4.56,-2.4 2.64,-0.96 6,-0.96 h 64.56 q 5.52,0 8.88,2.4 3.6,2.16 5.28,6.96 l 20.88,54.48 q 5.04,12.96 7.2,22.56 2.4,9.36 2.4,16.8 v 63.36 q 0,3.12 -0.96,5.28 -0.72,2.16 -2.4,3.6 l -31.2,25.92 q -0.96,0.96 -3.12,1.68 -1.92,0.72 -4.32,0.72 h -36.24 q -6,0 -8.88,-2.88 -2.88,-2.64 -2.88,-8.16 v -31.2 h -6.72 v 5.04 q 0,3.12 -0.96,5.28 -0.72,2.16 -2.4,3.6 z"
         style="font-style:normal;font-variant:normal;font-weight:bold;font-stretch:normal;font-size:240px;line-height:1.25;font-family:'Bungee Shade';-inkscape-font-specification:'Bungee Shade Bold';font-variant-ligatures:normal;font-variant-position:normal;font-variant-caps:normal;font-variant-numeric:normal;font-variant-alternates:normal;font-variant-east-asian:normal;font-feature-settings:normal;font-variation-settings:normal;text-indent:0;text-align:start;text-decoration:none;text-decoration-line:none;text-decoration-style:solid;text-decoration-color:#000000;letter-spacing:0px;word-spacing:0px;text-transform:none;writing-mode:lr-tb;direction:ltr;text-orientation:mixed;dominant-baseline:auto;baseline-shift:baseline;text-anchor:start;white-space:normal;shape-padding:0;shape-margin:0;inline-size:0;vector-effect:none;fill:#282828;fill-opacity:1;stroke:none;stroke-width:22.6772;stroke-linecap:butt;stroke-linejoin:miter;stroke-miterlimit:4;stroke-dasharray:none;stroke-dashoffset:0;stroke-opacity:1;stop-color:#000000;stop-opacity:1"
         id="path1223" /></g><g
       aria-label="era"
       transform="translate(27.589467,-0.00371094)"
       id="text1532-8"
       style="font-style:normal;font-variant:normal;font-weight:bold;font-stretch:normal;font-size:240px;line-height:1.25;font-family:'Bungee Shade';-inkscape-font-specification:'Bungee Shade Bold';font-variant-ligatures:normal;font-variant-position:normal;font-variant-caps:normal;font-variant-numeric:normal;font-variant-alternates:normal;font-variant-east-asian:normal;font-feature-settings:normal;font-variation-settings:normal;text-indent:0;text-align:start;text-decoration:none;text-decoration-line:none;text-decoration-style:solid;text-decoration-color:#000000;letter-spacing:23.5px;word-spacing:0px;text-transform:none;writing-mode:lr-tb;direction:ltr;text-orientation:mixed;dominant-baseline:auto;baseline-shift:baseline;text-anchor:start;white-space:normal;shape-padding:0;shape-margin:0;inline-size:0;opacity:1;vector-effect:none;fill:#458588;fill-opacity:1;stroke:#282828;stroke-width:2;stroke-linecap:butt;stroke-linejoin:miter;stroke-miterlimit:4;stroke-dasharray:none;stroke-dashoffset:0;stroke-opacity:1;stop-color:#000000;stop-opacity:1"><path
         d="m 217.41053,507.30371 h -111.36 q -4.56,0 -6.719997,-1.92 -1.92,-2.16 -1.92,-6.72 v -155.52 q 0,-4.56 1.92,-6.48 2.159997,-2.16 6.719997,-2.16 h 111.36 q 4.56,0 6.48,2.16 2.16,1.92 2.16,6.48 v 28.08 q 0,4.56 -2.16,6.72 -1.92,1.92 -6.48,1.92 h -66.24 v 18.48 h 46.8 q 4.56,0 6.48,2.16 2.16,1.92 2.16,6.48 v 25.68 q 0,4.56 -2.16,6.72 -1.92,1.92 -6.48,1.92 h -46.8 v 20.64 h 66.24 q 4.56,0 6.48,2.16 2.16,1.92 2.16,6.48 v 28.08 q 0,4.56 -2.16,6.72 -1.92,1.92 -6.48,1.92 z"
         style="font-style:normal;font-variant:normal;font-weight:bold;font-stretch:normal;font-size:240px;line-height:1.25;font-family:Bungee;-inkscape-font-specification:'Bungee Bold';font-variant-ligatures:normal;font-variant-position:normal;font-variant-caps:normal;font-variant-numeric:normal;font-variant-alternates:normal;font-variant-east-asian:normal;font-feature-settings:normal;text-indent:0;text-align:start;text-decoration:none;text-decoration-line:none;text-decoration-style:solid;text-decoration-color:#000000;word-spacing:0px;text-transform:none;writing-mode:lr-tb;direction:ltr;text-orientation:mixed;dominant-baseline:auto;baseline-shift:baseline;text-anchor:start;white-space:normal;shape-padding:0;shape-margin:0;inline-size:0;vector-effect:none;fill:#458588;fill-opacity:1;stroke:#282828;stroke-width:2;stroke-linecap:butt;stroke-linejoin:miter;stroke-miterlimit:4;stroke-dasharray:none;stroke-dashoffset:0;stroke-opacity:1;stop-color:#000000;stop-opacity:1"
         id="path1212" /><path
         d="m 332.11037,377.70371 v 30.72 h 18 q 6.24,0 8.4,-3.12 2.16,-3.36 2.16,-8.16 v -8.16 q 0,-4.8 -2.16,-7.92 -2.16,-3.36 -8.4,-3.36 z m -8.64,129.6 h -36.96 q -4.56,0 -6.72,-1.92 -1.92,-2.16 -1.92,-6.72 v -155.52 q 0,-4.56 1.92,-6.48 2.16,-2.16 6.72,-2.16 h 79.92 q 26.88,0 36.96,11.28 10.32,11.04 10.32,28.8 v 11.04 q 0,10.08 -3.12,17.28 -2.88,6.96 -10.32,10.08 12.96,1.44 20.88,10.56 8.16,9.12 8.16,24.24 v 50.88 q 0,4.56 -2.16,6.72 -1.92,1.92 -6.48,1.92 h -37.2 q -4.56,0 -6.72,-1.92 -1.92,-2.16 -1.92,-6.72 v -36.72 q 0,-5.28 -2.16,-7.68 -1.92,-2.64 -6.96,-2.64 h -33.6 v 47.04 q 0,4.56 -2.16,6.72 -1.92,1.92 -6.48,1.92 z"
         style="font-style:normal;font-variant:normal;font-weight:bold;font-stretch:normal;font-size:240px;line-height:1.25;font-family:Bungee;-inkscape-font-specification:'Bungee Bold';font-variant-ligatures:normal;font-variant-position:normal;font-variant-caps:normal;font-variant-numeric:normal;font-variant-alternates:normal;font-variant-east-asian:normal;font-feature-settings:normal;text-indent:0;text-align:start;text-decoration:none;text-decoration-line:none;text-decoration-style:solid;text-decoration-color:#000000;word-spacing:0px;text-transform:none;writing-mode:lr-tb;direction:ltr;text-orientation:mixed;dominant-baseline:auto;baseline-shift:baseline;text-anchor:start;white-space:normal;shape-padding:0;shape-margin:0;inline-size:0;vector-effect:none;fill:#458588;fill-opacity:1;stroke:#282828;stroke-width:2;stroke-linecap:butt;stroke-linejoin:miter;stroke-miterlimit:4;stroke-dasharray:none;stroke-dashoffset:0;stroke-opacity:1;stop-color:#000000;stop-opacity:1"
         id="path1214" /><path
         d="m 542.32992,384.90371 -11.28,36.48 h 37.68 l -11.28,-36.48 q -0.96,-2.16 -2.16,-3.12 -0.96,-0.96 -2.4,-0.96 h -6 q -1.44,0 -2.64,0.96 -0.96,0.96 -1.92,3.12 z m -13.68,113.76 q 0,4.56 -2.16,6.72 -1.92,1.92 -6.48,1.92 h -35.28 q -4.56,0 -6.72,-1.92 -1.92,-2.16 -1.92,-6.72 v -63.36 q 0,-7.2 2.16,-16.56 2.4,-9.36 7.2,-21.84 l 20.88,-54.48 q 1.44,-4.08 4.32,-6 3.12,-1.92 7.92,-1.92 h 64.56 q 4.56,0 7.44,1.92 3.12,1.92 4.56,6 l 20.88,54.48 q 4.8,12.48 6.96,21.84 2.4,9.36 2.4,16.56 v 63.36 q 0,4.56 -2.16,6.72 -1.92,1.92 -6.48,1.92 h -36.24 q -4.8,0 -7.2,-1.92 -2.16,-2.16 -2.16,-6.72 v -33.6 h -42.48 z"
         style="font-style:normal;font-variant:normal;font-weight:bold;font-stretch:normal;font-size:240px;line-height:1.25;font-family:Bungee;-inkscape-font-specification:'Bungee Bold';font-variant-ligatures:normal;font-variant-position:normal;font-variant-caps:normal;font-variant-numeric:normal;font-variant-alternates:normal;font-variant-east-asian:normal;font-feature-settings:normal;text-indent:0;text-align:start;text-decoration:none;text-decoration-line:none;text-decoration-style:solid;text-decoration-color:#000000;word-spacing:0px;text-transform:none;writing-mode:lr-tb;direction:ltr;text-orientation:mixed;dominant-baseline:auto;baseline-shift:baseline;text-anchor:start;white-space:normal;shape-padding:0;shape-margin:0;inline-size:0;vector-effect:none;fill:#458588;fill-opacity:1;stroke:#282828;stroke-width:2;stroke-linecap:butt;stroke-linejoin:miter;stroke-miterlimit:4;stroke-dasharray:none;stroke-dashoffset:0;stroke-opacity:1;stop-color:#000000;stop-opacity:1"
         id="path1216" /></g></g></g><g
   inkscape:groupmode="layer"
   id="layer1"
   inkscape:label="border"
   style="display:inline"><path
     class="st2"
     d="M 734.9,637.4 V 213.1 L 705.6,196.2 427.8,35.8 367.5,1 307.2,35.8 29.4,196.2 0.1,213.1 v 424.2 l 29.3,16.9 281.3,162.4 56.9,32.8 56.9,-32.8 281.3,-162.4 z M 29.4,621.5 V 231 l 50,-28.9 288.1,-166.3 v 0 L 654.7,201.6 705.6,231 V 621.5 L 367.5,816.7 Z"
     id="path17"
     style="fill:#b57614;fill-opacity:1" /></g></svg>
